<svg xmlns="http://www.w3.org/2000/svg" width="105" height="118" viewBox="0 0 105 118" fill="none"><path d="M60.1593 29.3074C63.6787 27.3135 75.8445 18.1964 92.3549 55.0163C108.865 91.8363 93.3612 95.9221 93.3612 95.9221C93.3612 95.9221 82.1286 102.723 70.8646 84.7095C64.6998 74.8526 75.0951 71.2018 79.8267 81.6021C84.5596 92.0001 80.4985 102.176 73.2369 104.99C66.0055 107.793 55.3339 106.567 49.3759 93.943C43.8761 82.288 53.7157 80.6354 58.7594 91.5304C64.1234 103.116 53.3423 112.895 42.3049 106.555C30.7187 99.899 -1.56559 66.1544 19.3695 49.9346C35.5495 37.3968 49.2962 53.4074 53.2833 40.7284C54.283 37.5496 55.3193 32.0496 60.1611 29.3069L60.1593 29.3074Z" stroke="#4C082A" stroke-width="6" stroke-linejoin="round"></path><path d="M60.1593 29.3074C63.6787 27.3135 75.8445 18.1964 92.3549 55.0163C108.865 91.8363 93.3612 95.9221 93.3612 95.9221C93.3612 95.9221 82.1286 102.723 70.8646 84.7095C64.6998 74.8526 75.0951 71.2018 79.8267 81.6021C84.5596 92.0001 80.4985 102.176 73.2369 104.99C66.0055 107.793 55.3339 106.567 49.3759 93.943C43.8761 82.288 53.7157 80.6354 58.7594 91.5304C64.1234 103.116 53.3423 112.895 42.3049 106.555C30.7187 99.899 -1.56559 66.1544 19.3695 49.9346C35.5495 37.3968 49.2962 53.4074 53.2833 40.7284C54.283 37.5496 55.3193 32.0496 60.1611 29.3069L60.1593 29.3074Z" stroke="white" stroke-opacity="0.16" stroke-width="6" stroke-linejoin="round"></path><path d="M48.3895 42.4306C48.3895 42.4306 30.7169 15.2094 26.7345 14.4778C23.9272 13.9611 21.5451 17.9065 18.7337 19.321C17.7563 19.8129 17.5425 21.111 18.3058 21.8937L41.1378 44.3389" stroke="#4C082A" stroke-width="6" stroke-linejoin="round"></path><path d="M48.3895 42.4306C48.3895 42.4306 30.7169 15.2094 26.7345 14.4778C23.9272 13.9611 21.5451 17.9065 18.7337 19.321C17.7563 19.8129 17.5425 21.111 18.3058 21.8937L41.1378 44.3389" stroke="white" stroke-opacity="0.16" stroke-width="6" stroke-linejoin="round"></path></svg>