<svg xmlns="http://www.w3.org/2000/svg" width="221" height="213" viewBox="0 0 221 213" fill="none"><path d="M64.6538 80.3456C70.4879 68.823 73.7105 56.4712 68.7074 44.7209C65.0259 36.0739 58.5434 32.3482 51.6667 34.5446C41.6998 37.732 38.6403 53.9891 44.5579 64.261C47.6759 69.6741 56.2923 68.1336 54.8221 59.8401C52.9357 49.1932 39.9445 39.1016 28.1921 45.946C18.5864 51.5427 23.0254 64.7028 29.8542 71.8349C50.1929 93.0756 74.0617 93.3764 104.613 82.0743C128.551 73.2201 156.069 51.0944 160.138 40.0702C163.51 30.9302 153.811 30.2044 144.072 31.9758C133.243 33.9464 101.4 42.8341 70.9925 60.6011" stroke="#4C082A" stroke-width="6" stroke-linejoin="round"></path><path d="M64.6538 80.3456C70.4879 68.823 73.7105 56.4712 68.7074 44.7209C65.0259 36.0739 58.5434 32.3482 51.6667 34.5446C41.6998 37.732 38.6403 53.9891 44.5579 64.261C47.6759 69.6741 56.2923 68.1336 54.8221 59.8401C52.9357 49.1932 39.9445 39.1016 28.1921 45.946C18.5864 51.5427 23.0254 64.7028 29.8542 71.8349C50.1929 93.0756 74.0617 93.3764 104.613 82.0743C128.551 73.2201 156.069 51.0944 160.138 40.0702C163.51 30.9302 153.811 30.2044 144.072 31.9758C133.243 33.9464 101.4 42.8341 70.9925 60.6011" stroke="white" stroke-opacity="0.16" stroke-width="6" stroke-linejoin="round"></path><path d="M182.381 122.627C200.406 80.5291 189.911 50.982 183.689 42.7261C178.167 35.3994 175.154 40.853 171.032 47.1755C136.287 100.44 28.6423 132.936 17.9791 109.369C15.0318 102.856 25.0549 91.4195 40.9457 79.6021" stroke="#4C082A" stroke-width="6" stroke-linejoin="round"></path><path d="M182.381 122.627C200.406 80.5291 189.911 50.982 183.689 42.7261C178.167 35.3994 175.154 40.853 171.032 47.1755C136.287 100.44 28.6423 132.936 17.9791 109.369C15.0318 102.856 25.0549 91.4195 40.9457 79.6021" stroke="white" stroke-opacity="0.16" stroke-width="6" stroke-linejoin="round"></path><path d="M142.787 185.467C157.744 180.673 175.239 171.95 187.245 156.126C204.031 134.001 204.005 106.498 194.344 106.206C187.153 105.988 184.768 117.782 182.383 122.624C167.735 152.326 138.341 151.895 126.326 148.895C112.821 145.522 100.704 138.617 89.011 131.501C86.9654 130.255 82.3536 128.214 78.8539 130.902C74.8635 133.969 76.1153 154.054 122.301 165.24" stroke="#4C082A" stroke-width="6" stroke-linejoin="round"></path><path d="M142.787 185.467C157.744 180.673 175.239 171.95 187.245 156.126C204.031 134.001 204.005 106.498 194.344 106.206C187.153 105.988 184.768 117.782 182.383 122.624C167.735 152.326 138.341 151.895 126.326 148.895C112.821 145.522 100.704 138.617 89.011 131.501C86.9654 130.255 82.3536 128.214 78.8539 130.902C74.8635 133.969 76.1153 154.054 122.301 165.24" stroke="white" stroke-opacity="0.16" stroke-width="6" stroke-linejoin="round"></path><path d="M91.545 153.307C79.6586 147.021 67.8867 136.083 62.152 143.222C57.6351 148.845 68.3337 163.479 104.764 175.991" stroke="#4C082A" stroke-width="6" stroke-linejoin="round"></path><path d="M91.545 153.307C79.6586 147.021 67.8867 136.083 62.152 143.222C57.6351 148.845 68.3337 163.479 104.764 175.991" stroke="white" stroke-opacity="0.16" stroke-width="6" stroke-linejoin="round"></path><path d="M76.2037 162.988C62.8185 156.254 52.8356 147.635 48.0166 154.394C43.831 160.267 53.2097 172.611 87.7317 184.856" stroke="#4C082A" stroke-width="6" stroke-linejoin="round"></path><path d="M76.2037 162.988C62.8185 156.254 52.8356 147.635 48.0166 154.394C43.831 160.267 53.2097 172.611 87.7317 184.856" stroke="white" stroke-opacity="0.16" stroke-width="6" stroke-linejoin="round"></path><path d="M17.9788 109.367C17.9788 109.367 31.2611 145.424 66.8931 156.784" stroke="#4C082A" stroke-width="6" stroke-linejoin="round"></path><path d="M17.9788 109.367C17.9788 109.367 31.2611 145.424 66.8931 156.784" stroke="white" stroke-opacity="0.16" stroke-width="6" stroke-linejoin="round"></path></svg>