<svg xmlns="http://www.w3.org/2000/svg" width="150" height="132" viewBox="0 0 150 132" fill="none"><path d="M53.4196 98.6141C38.1095 100.496 23.2054 82.8105 31.1821 69.0536C38.2568 56.8533 55.6181 69.7036 52.2029 76.6357C46.0814 89.0602 20.4644 64.4266 32.2882 45.0274C42.7187 27.9131 70.3521 44.8398 58.7211 54.9726C52.6871 60.2303 34.8826 48.6146 54.1241 26.1459C73.3676 3.67683 98.9794 20.008 96.63 44.1318C94.2806 68.2556 59.8775 70.0198 67.0213 92.375C75.6381 119.34 126.193 94.7761 138.754 81.1259C151.318 67.4754 147.723 47.6196 138.007 48.4657C131.046 49.0704 128.254 59.1423 129.757 69.4034C129.757 69.4034 123.971 49.3683 114.904 56.3219C110.071 60.0272 115.018 69.5886 116.424 79.445C123.303 127.635 42.3957 146.425 15.4925 105.786C-21.8591 49.3543 39.4767 -11.1568 76.9605 6.90055" stroke="#4C082A" stroke-width="6" stroke-linejoin="round"></path><path d="M53.4196 98.6141C38.1095 100.496 23.2054 82.8105 31.1821 69.0536C38.2568 56.8533 55.6181 69.7036 52.2029 76.6357C46.0814 89.0602 20.4644 64.4266 32.2882 45.0274C42.7187 27.9131 70.3521 44.8398 58.7211 54.9726C52.6871 60.2303 34.8826 48.6146 54.1241 26.1459C73.3676 3.67683 98.9794 20.008 96.63 44.1318C94.2806 68.2556 59.8775 70.0198 67.0213 92.375C75.6381 119.34 126.193 94.7761 138.754 81.1259C151.318 67.4754 147.723 47.6196 138.007 48.4657C131.046 49.0704 128.254 59.1423 129.757 69.4034C129.757 69.4034 123.971 49.3683 114.904 56.3219C110.071 60.0272 115.018 69.5886 116.424 79.445C123.303 127.635 42.3957 146.425 15.4925 105.786C-21.8591 49.3543 39.4767 -11.1568 76.9605 6.90055" stroke="white" stroke-opacity="0.16" stroke-width="6" stroke-linejoin="round"></path></svg>