<svg xmlns="http://www.w3.org/2000/svg" width="383" height="231" viewBox="0 0 383 231" fill="none"><path d="M159.061 174.514C159.061 174.514 59.1908 218.451 13.7924 227.254C7.35099 225.91 -4.07278 212.218 10.2562 206.414C24.5851 200.611 154.157 173.887 279.719 87.0764C327.51 54.0349 331.048 50.7781 318.067 65.2697C305.083 79.762 225.221 142.224 182.863 163.326C153.595 177.905 284.238 203.414 301.564 169.998C308.552 156.518 267.245 149.462 267.245 149.462C267.245 149.462 340.783 148.242 336 127.362C332.784 113.325 286.931 119.217 286.931 119.217C286.931 119.217 373.97 102.937 370.474 76.1088C368.66 62.1983 332.123 73.6951 332.123 73.6951C332.123 73.6951 392.469 20.257 377.633 5.32791C362.796 -9.60121 296.239 55.2844 296.239 55.2844C296.239 55.2844 318.324 10.1589 310.467 8.78904C302.608 7.42153 260.214 62.4576 252.911 71.6883C252.911 71.6883 278.547 13.7273 260.847 14.7322C246.649 15.5384 189.557 79.4899 201.409 96.1732C213.262 112.854 229.835 40.311 208.211 39.9425C193.073 39.6845 198.576 125.02 80.7107 173.179" stroke="#4C082A" stroke-width="6" stroke-linejoin="round"></path><path d="M159.061 174.514C159.061 174.514 59.1908 218.451 13.7924 227.254C7.35099 225.91 -4.07278 212.218 10.2562 206.414C24.5851 200.611 154.157 173.887 279.719 87.0764C327.51 54.0349 331.048 50.7781 318.067 65.2697C305.083 79.762 225.221 142.224 182.863 163.326C153.595 177.905 284.238 203.414 301.564 169.998C308.552 156.518 267.245 149.462 267.245 149.462C267.245 149.462 340.783 148.242 336 127.362C332.784 113.325 286.931 119.217 286.931 119.217C286.931 119.217 373.97 102.937 370.474 76.1088C368.66 62.1983 332.123 73.6951 332.123 73.6951C332.123 73.6951 392.469 20.257 377.633 5.32791C362.796 -9.60121 296.239 55.2844 296.239 55.2844C296.239 55.2844 318.324 10.1589 310.467 8.78904C302.608 7.42153 260.214 62.4576 252.911 71.6883C252.911 71.6883 278.547 13.7273 260.847 14.7322C246.649 15.5384 189.557 79.4899 201.409 96.1732C213.262 112.854 229.835 40.311 208.211 39.9425C193.073 39.6845 198.576 125.02 80.7107 173.179" stroke="white" stroke-opacity="0.16" stroke-width="6" stroke-linejoin="round"></path></svg>